<svg xmlns="http://www.w3.org/2000/svg" version="1.1" xmlns:xlink="http://www.w3.org/1999/xlink" width="512" height="512" x="0" y="0" viewBox="0 0 256 256" style="enable-background:new 0 0 512 512" xml:space="preserve" class=""><circle r="128" cx="128" cy="128" fill="#ebf6ff" shape="circle" transform="matrix(0.81,0,0,0.81,24.319999999999993,24.319999999999993)"></circle><g transform="matrix(0.9800000000000005,0,0,0.9800000000000005,2.559999999999931,2.5744599914550577)"><path fill="#a4c9ff" d="M148.237 226.227h-7.192v-62.041c0-1.699-1.392-3.076-3.109-3.076h-19.872c-1.717 0-3.109 1.377-3.109 3.076v62.041h-7.192c-1.749 0-2.712 2.011-1.604 3.35l20.237 24.451a2.086 2.086 0 0 0 3.207 0l20.237-24.451c1.109-1.339.146-3.35-1.603-3.35z" opacity="1" data-original="#6bdddd" class=""></path><path fill="#3762cc" d="M128 256.779a4.068 4.068 0 0 1-3.145-1.477l-20.237-24.45a4.003 4.003 0 0 1-.545-4.292 4.039 4.039 0 0 1 3.689-2.334h5.192v-60.041c0-2.799 2.292-5.077 5.109-5.077h19.871c2.817 0 5.109 2.277 5.109 5.077v60.041h5.192c1.598 0 3.012.895 3.689 2.334a4 4 0 0 1-.545 4.291l-20.237 24.451a4.057 4.057 0 0 1-3.142 1.477zm-.052-4.027h.114l20.237-24.45-.063-.075h-7.192a2 2 0 0 1-2-2v-62.041c0-.594-.498-1.077-1.109-1.077h-19.871c-.611 0-1.109.483-1.109 1.077v62.041a2 2 0 0 1-2 2h-7.192l20.175 24.525z" opacity="1" data-original="#3762cc" class=""></path><path fill="#e0ebfc" d="M246.777 131.5H128a3.5 3.5 0 1 1 0-7h118.777a3.5 3.5 0 1 1 0 7zM201.312 103.319h-23.993a3.5 3.5 0 1 1 0-7h21.317l3.152-11.609a3.5 3.5 0 0 1 3.378-2.583h40.771a3.5 3.5 0 1 1 0 7h-38.095l-3.152 11.609a3.5 3.5 0 0 1-3.378 2.583zM245.937 173.873h-40.771a3.5 3.5 0 0 1-3.378-2.583l-3.152-11.609h-21.317a3.5 3.5 0 1 1 0-7h23.993a3.5 3.5 0 0 1 3.378 2.583l3.152 11.609h38.095a3.5 3.5 0 1 1 0 7z" opacity="1" data-original="#e0ebfc" class=""></path><path fill="#e0ebfc" d="M128 131.5H9.223a3.5 3.5 0 1 1 0-7H128a3.5 3.5 0 1 1 0 7zM50.834 173.873H10.063a3.5 3.5 0 1 1 0-7h38.095l3.152-11.609a3.5 3.5 0 0 1 3.378-2.583h23.993a3.5 3.5 0 1 1 0 7H57.364l-3.152 11.609a3.5 3.5 0 0 1-3.378 2.583zM78.682 103.319H54.688a3.5 3.5 0 0 1-3.378-2.583l-3.152-11.609H10.063a3.5 3.5 0 1 1 0-7h40.771a3.5 3.5 0 0 1 3.378 2.583l3.152 11.609h21.317a3.5 3.5 0 0 1 .001 7z" opacity="1" data-original="#e0ebfc" class=""></path><path fill="#3762cc" d="M246.777 133.5H128c-3.032 0-5.5-2.467-5.5-5.5s2.468-5.5 5.5-5.5h118.777c3.032 0 5.5 2.467 5.5 5.5s-2.467 5.5-5.5 5.5zM128 126.5c-.827 0-1.5.673-1.5 1.5s.673 1.5 1.5 1.5h118.777c.827 0 1.5-.673 1.5-1.5s-.673-1.5-1.5-1.5zM201.312 105.319h-23.993c-3.032 0-5.5-2.467-5.5-5.5s2.468-5.5 5.5-5.5h19.788l2.752-10.133a5.51 5.51 0 0 1 5.308-4.059h40.771c3.033 0 5.5 2.467 5.5 5.5s-2.467 5.5-5.5 5.5h-36.565l-2.752 10.133a5.514 5.514 0 0 1-5.309 4.059zm-23.994-7c-.827 0-1.5.673-1.5 1.5s.673 1.5 1.5 1.5h23.993c.676 0 1.271-.455 1.448-1.107l3.152-11.609a1.998 1.998 0 0 1 1.93-1.476h38.095c.827 0 1.5-.673 1.5-1.5s-.673-1.5-1.5-1.5h-40.771c-.676 0-1.271.455-1.448 1.107l-3.152 11.609a1.998 1.998 0 0 1-1.93 1.476zM245.937 175.873h-40.771a5.51 5.51 0 0 1-5.308-4.058l-2.752-10.133h-19.788c-3.032 0-5.5-2.467-5.5-5.5s2.468-5.5 5.5-5.5h23.993a5.51 5.51 0 0 1 5.308 4.058l2.752 10.133h36.565c3.033 0 5.5 2.467 5.5 5.5s-2.466 5.5-5.499 5.5zm-68.619-21.192c-.827 0-1.5.673-1.5 1.5s.673 1.5 1.5 1.5h21.317a2 2 0 0 1 1.93 1.476l3.152 11.609a1.504 1.504 0 0 0 1.448 1.106h40.771c.827 0 1.5-.673 1.5-1.5s-.673-1.5-1.5-1.5h-38.095a2 2 0 0 1-1.93-1.476l-3.152-11.609a1.504 1.504 0 0 0-1.448-1.106z" opacity="1" data-original="#3762cc" class=""></path><path fill="#3762cc" d="M128 133.5H9.223c-3.032 0-5.5-2.467-5.5-5.5s2.468-5.5 5.5-5.5H128c3.032 0 5.5 2.467 5.5 5.5s-2.468 5.5-5.5 5.5zm-118.777-7c-.827 0-1.5.673-1.5 1.5s.673 1.5 1.5 1.5H128c.827 0 1.5-.673 1.5-1.5s-.673-1.5-1.5-1.5zM50.834 175.873H10.063c-3.033 0-5.5-2.467-5.5-5.5s2.467-5.5 5.5-5.5h36.565l2.752-10.133a5.51 5.51 0 0 1 5.308-4.059h23.993c3.032 0 5.5 2.467 5.5 5.5s-2.468 5.5-5.5 5.5H58.894l-2.752 10.133a5.51 5.51 0 0 1-5.308 4.059zm-40.771-7c-.827 0-1.5.673-1.5 1.5s.673 1.5 1.5 1.5h40.771c.676 0 1.271-.455 1.448-1.107l3.152-11.608a1.998 1.998 0 0 1 1.93-1.476h21.317c.827 0 1.5-.673 1.5-1.5s-.673-1.5-1.5-1.5H54.688c-.676 0-1.271.455-1.448 1.107l-3.152 11.608a1.998 1.998 0 0 1-1.93 1.476zM78.682 105.319H54.688a5.51 5.51 0 0 1-5.308-4.059l-2.752-10.133H10.063c-3.033 0-5.5-2.467-5.5-5.5s2.467-5.5 5.5-5.5h40.771a5.51 5.51 0 0 1 5.308 4.059l2.752 10.133h19.788c3.032 0 5.5 2.467 5.5 5.5s-2.468 5.5-5.5 5.5zM10.063 84.127c-.827 0-1.5.673-1.5 1.5s.673 1.5 1.5 1.5h38.095a2 2 0 0 1 1.93 1.476l3.152 11.609a1.504 1.504 0 0 0 1.448 1.107h23.993c.827 0 1.5-.673 1.5-1.5s-.673-1.5-1.5-1.5H57.364a2 2 0 0 1-1.93-1.476l-3.152-11.609a1.504 1.504 0 0 0-1.448-1.107z" opacity="1" data-original="#3762cc" class=""></path><circle cx="246.777" cy="85.627" r="6.223" fill="#a4c9ff" opacity="1" data-original="#6bdddd" class=""></circle><path fill="#3762cc" d="M246.777 93.85c-4.534 0-8.223-3.689-8.223-8.223s3.688-8.223 8.223-8.223S255 81.093 255 85.627s-3.688 8.223-8.223 8.223zm0-12.446c-2.328 0-4.223 1.894-4.223 4.223s1.895 4.223 4.223 4.223S251 87.956 251 85.627s-1.895-4.223-4.223-4.223z" opacity="1" data-original="#3762cc" class=""></path><circle cx="246.777" cy="170.373" r="6.223" fill="#a4c9ff" opacity="1" data-original="#6bdddd" class=""></circle><path fill="#3762cc" d="M246.777 178.596c-4.534 0-8.223-3.688-8.223-8.223s3.688-8.223 8.223-8.223 8.223 3.689 8.223 8.223-3.688 8.223-8.223 8.223zm0-12.446c-2.328 0-4.223 1.895-4.223 4.223s1.895 4.223 4.223 4.223 4.223-1.894 4.223-4.223-1.895-4.223-4.223-4.223z" opacity="1" data-original="#3762cc" class=""></path><circle cx="246.777" cy="127.999" r="6.223" fill="#a4c9ff" opacity="1" data-original="#6bdddd" class=""></circle><path fill="#3762cc" d="M246.777 136.222c-4.534 0-8.223-3.688-8.223-8.223s3.688-8.223 8.223-8.223S255 123.465 255 128s-3.688 8.222-8.223 8.222zm0-12.445c-2.328 0-4.223 1.894-4.223 4.223s1.895 4.223 4.223 4.223S251 130.328 251 128s-1.895-4.223-4.223-4.223z" opacity="1" data-original="#3762cc" class=""></path><circle cx="9.223" cy="170.373" r="6.223" fill="#a4c9ff" opacity="1" data-original="#6bdddd" class=""></circle><path fill="#3762cc" d="M9.223 178.596c-4.534 0-8.223-3.688-8.223-8.223s3.688-8.223 8.223-8.223 8.223 3.689 8.223 8.223-3.689 8.223-8.223 8.223zm0-12.446c-2.328 0-4.223 1.895-4.223 4.223s1.895 4.223 4.223 4.223 4.223-1.894 4.223-4.223-1.895-4.223-4.223-4.223z" opacity="1" data-original="#3762cc" class=""></path><circle cx="9.223" cy="85.627" r="6.223" fill="#a4c9ff" opacity="1" data-original="#6bdddd" class=""></circle><path fill="#3762cc" d="M9.223 93.85C4.688 93.85 1 90.161 1 85.627s3.688-8.223 8.223-8.223 8.223 3.688 8.223 8.223-3.689 8.223-8.223 8.223zm0-12.446C6.895 81.404 5 83.298 5 85.627s1.895 4.223 4.223 4.223 4.223-1.895 4.223-4.223-1.895-4.223-4.223-4.223z" opacity="1" data-original="#3762cc" class=""></path><circle cx="9.223" cy="128.001" r="6.223" fill="#a4c9ff" opacity="1" data-original="#6bdddd" class=""></circle><path fill="#3762cc" d="M9.223 136.223C4.688 136.223 1 132.535 1 128s3.688-8.223 8.223-8.223 8.223 3.688 8.223 8.223-3.689 8.223-8.223 8.223zm0-12.445C6.895 123.778 5 125.672 5 128s1.895 4.223 4.223 4.223 4.223-1.894 4.223-4.223-1.895-4.222-4.223-4.222z" opacity="1" data-original="#3762cc" class=""></path><path fill="#a4c9ff" d="m62.062 143.136 15.601.869a52.498 52.498 0 0 0 3.434 8.264l-10.425 11.654a3.899 3.899 0 0 0 .149 5.356l15.9 15.9a3.899 3.899 0 0 0 5.356.149l11.654-10.425a52.498 52.498 0 0 0 8.264 3.434l.869 15.601a3.899 3.899 0 0 0 3.893 3.682h22.486a3.899 3.899 0 0 0 3.893-3.682l.869-15.601a52.538 52.538 0 0 0 8.264-3.434l11.654 10.425a3.899 3.899 0 0 0 5.356-.149l15.9-15.9a3.899 3.899 0 0 0 .149-5.356l-10.425-11.654a52.498 52.498 0 0 0 3.434-8.264l15.601-.869a3.898 3.898 0 0 0 3.682-3.893v-22.486a3.899 3.899 0 0 0-3.682-3.893l-15.601-.869a52.498 52.498 0 0 0-3.434-8.264l10.425-11.654a3.899 3.899 0 0 0-.149-5.356l-15.9-15.9a3.899 3.899 0 0 0-5.356-.149l-11.654 10.425a52.498 52.498 0 0 0-8.264-3.434l-.869-15.601a3.899 3.899 0 0 0-3.893-3.682h-22.486a3.899 3.899 0 0 0-3.893 3.682l-.869 15.601a52.538 52.538 0 0 0-8.264 3.434L92.078 70.672a3.899 3.899 0 0 0-5.356.149l-15.9 15.9a3.899 3.899 0 0 0-.149 5.356l10.425 11.654a52.498 52.498 0 0 0-3.434 8.264l-15.601.869a3.898 3.898 0 0 0-3.682 3.893v22.486a3.897 3.897 0 0 0 3.681 3.893zM128 99.131c15.944 0 28.869 12.925 28.869 28.869S143.944 156.869 128 156.869 99.131 143.944 99.131 128 112.056 99.131 128 99.131z" opacity="1" data-original="#4671c6" class=""></path><path fill="#3762cc" d="M139.243 199.62h-22.486a5.903 5.903 0 0 1-5.89-5.57l-.793-14.244a54.718 54.718 0 0 1-6.024-2.503l-10.64 9.517a5.9 5.9 0 0 1-8.103-.226l-15.9-15.9a5.902 5.902 0 0 1-.225-8.104l9.516-10.639a54.733 54.733 0 0 1-2.503-6.024l-14.244-.793a5.901 5.901 0 0 1-5.571-5.89v-22.486a5.901 5.901 0 0 1 5.571-5.89l14.244-.793a54.733 54.733 0 0 1 2.503-6.024l-9.516-10.639a5.902 5.902 0 0 1 .225-8.104l15.9-15.9a5.901 5.901 0 0 1 8.103-.226l10.64 9.517a54.839 54.839 0 0 1 6.025-2.503l.793-14.244a5.902 5.902 0 0 1 5.89-5.57h22.486a5.903 5.903 0 0 1 5.89 5.57l.793 14.244a54.718 54.718 0 0 1 6.024 2.503l10.64-9.517a5.901 5.901 0 0 1 8.103.226l15.9 15.9a5.902 5.902 0 0 1 .225 8.104l-9.516 10.639a54.733 54.733 0 0 1 2.503 6.024l14.244.793a5.901 5.901 0 0 1 5.571 5.89v22.486a5.901 5.901 0 0 1-5.571 5.89l-14.244.793a54.733 54.733 0 0 1-2.503 6.024l9.516 10.639a5.902 5.902 0 0 1-.225 8.104l-15.9 15.9a5.9 5.9 0 0 1-8.103.226l-10.64-9.517a54.605 54.605 0 0 1-6.024 2.503l-.793 14.244a5.904 5.904 0 0 1-5.891 5.57zm-35.512-26.717c.314 0 .631.074.922.225a50.78 50.78 0 0 0 7.949 3.304c.79.252 1.344.966 1.39 1.794l.869 15.601a1.9 1.9 0 0 0 1.896 1.793h22.486a1.9 1.9 0 0 0 1.896-1.793l.869-15.601c.046-.828.6-1.542 1.39-1.794a50.684 50.684 0 0 0 7.949-3.304 1.997 1.997 0 0 1 2.255.284l11.654 10.425a1.9 1.9 0 0 0 2.608-.072l15.9-15.9a1.9 1.9 0 0 0 .072-2.609l-10.424-11.654a1.999 1.999 0 0 1-.285-2.255 50.647 50.647 0 0 0 3.304-7.95 2.001 2.001 0 0 1 1.794-1.39l15.601-.869a1.9 1.9 0 0 0 1.794-1.896v-22.486a1.9 1.9 0 0 0-1.794-1.896l-15.601-.869a2 2 0 0 1-1.794-1.39 50.591 50.591 0 0 0-3.304-7.95 1.999 1.999 0 0 1 .285-2.255l10.424-11.654a1.9 1.9 0 0 0-.072-2.609l-15.9-15.9a1.9 1.9 0 0 0-2.608-.072l-11.654 10.425a2 2 0 0 1-2.255.284 50.78 50.78 0 0 0-7.949-3.304 2.001 2.001 0 0 1-1.39-1.794l-.869-15.601a1.9 1.9 0 0 0-1.896-1.793h-22.486a1.9 1.9 0 0 0-1.896 1.793l-.869 15.601a2 2 0 0 1-1.39 1.794 50.881 50.881 0 0 0-7.949 3.304 2.002 2.002 0 0 1-2.255-.284L90.744 72.163a1.898 1.898 0 0 0-2.608.072l-15.9 15.9a1.9 1.9 0 0 0-.072 2.609l10.424 11.654c.555.62.668 1.518.285 2.255a50.647 50.647 0 0 0-3.304 7.95 2.001 2.001 0 0 1-1.794 1.39l-15.601.869a1.9 1.9 0 0 0-1.794 1.896v22.486a1.9 1.9 0 0 0 1.794 1.896l15.601.869a2 2 0 0 1 1.794 1.39 50.591 50.591 0 0 0 3.304 7.95c.383.737.27 1.635-.285 2.255l-10.424 11.654a1.9 1.9 0 0 0 .072 2.609l15.9 15.9a1.898 1.898 0 0 0 2.608.072l11.654-10.425a1.992 1.992 0 0 1 1.333-.511zM128 158.869c-17.021 0-30.869-13.848-30.869-30.869S110.979 97.131 128 97.131s30.869 13.848 30.869 30.869-13.848 30.869-30.869 30.869zm0-57.738c-14.815 0-26.869 12.053-26.869 26.869s12.054 26.869 26.869 26.869 26.869-12.053 26.869-26.869-12.054-26.869-26.869-26.869z" opacity="1" data-original="#3762cc" class=""></path><path fill="#3762cc" d="M128 155.755c-15.305 0-27.756-12.451-27.756-27.755s12.451-27.755 27.756-27.755 27.756 12.451 27.756 27.755-12.451 27.755-27.756 27.755zm0-51.51c-13.099 0-23.756 10.656-23.756 23.755s10.657 23.755 23.756 23.755 23.756-10.656 23.756-23.755-10.657-23.755-23.756-23.755z" opacity="1" data-original="#3762cc" class=""></path><path fill="#a4c9ff" d="M128 161.109c18.286 0 33.109-14.824 33.109-33.109S146.286 94.891 128 94.891 94.891 109.714 94.891 128s14.823 33.109 33.109 33.109zm0-53.713c11.362 0 20.604 9.243 20.604 20.604s-9.243 20.604-20.604 20.604-20.604-9.243-20.604-20.604 9.242-20.604 20.604-20.604z" opacity="1" data-original="#a4c9ff" class=""></path><circle cx="128" cy="128" r="20.604" fill="#e0ebfc" opacity="1" data-original="#e0ebfc" class=""></circle><path fill="#3762cc" d="M128 163.109c-19.359 0-35.109-15.75-35.109-35.109S108.641 92.891 128 92.891s35.109 15.75 35.109 35.109-15.75 35.109-35.109 35.109zm0-66.218c-17.153 0-31.109 13.956-31.109 31.109s13.956 31.109 31.109 31.109 31.109-13.956 31.109-31.109S145.153 96.891 128 96.891zm0 53.713c-12.464 0-22.604-10.14-22.604-22.604s10.141-22.604 22.604-22.604 22.604 10.14 22.604 22.604-10.14 22.604-22.604 22.604zm0-41.208c-10.259 0-18.604 8.346-18.604 18.604s8.346 18.604 18.604 18.604 18.604-8.346 18.604-18.604-8.345-18.604-18.604-18.604z" opacity="1" data-original="#3762cc" class=""></path><path fill="#3762cc" d="M128 150.604c-12.464 0-22.604-10.14-22.604-22.604s10.141-22.604 22.604-22.604 22.604 10.14 22.604 22.604-10.14 22.604-22.604 22.604zm0-41.208c-10.259 0-18.604 8.346-18.604 18.604s8.346 18.604 18.604 18.604 18.604-8.346 18.604-18.604-8.345-18.604-18.604-18.604z" opacity="1" data-original="#3762cc" class=""></path><path fill="#a4c9ff" d="M146.676 28.03h-6.637V5.667a3 3 0 0 0-3-3h-18.078a3 3 0 0 0-3 3V28.03h-6.637c-1.614 0-2.503 1.856-1.48 3.092l18.676 22.565a1.922 1.922 0 0 0 2.96 0l18.676-22.565c1.023-1.236.135-3.092-1.48-3.092z" opacity="1" data-original="#f9a7a7" class=""></path><path fill="#3762cc" d="M128 56.383a3.911 3.911 0 0 1-3.021-1.421l-18.677-22.565a3.846 3.846 0 0 1-.523-4.125 3.88 3.88 0 0 1 3.544-2.242h4.638V5.667c0-2.757 2.243-5 5-5h18.078c2.757 0 5 2.243 5 5V26.03h4.638a3.88 3.88 0 0 1 3.544 2.242 3.848 3.848 0 0 1-.523 4.125l-18.676 22.565A3.915 3.915 0 0 1 128 56.383zM109.536 30.03 128 52.339l18.464-22.309h-6.425a2 2 0 0 1-2-2V5.667c0-.551-.448-1-1-1h-18.078c-.552 0-1 .449-1 1V28.03a2 2 0 0 1-2 2zm37.141 0h.01z" opacity="1" data-original="#3762cc" class=""></path></g></svg>